<?xml version="1.0"?><svg height="60px" version="1.1" viewBox="0 0 60 60" width="60px" xmlns="http://www.w3.org/2000/svg" xmlns:sketch="http://www.bohemiancoding.com/sketch/ns" xmlns:xlink="http://www.w3.org/1999/xlink"><title/><desc/><defs/><g fill="none" fill-rule="evenodd" id="Shopping" stroke="none" stroke-width="1"><g fill="#000000" id="Icon-8"><path d="M15.4199,35.9995 L15.9199,41.9995 L23.9999,41.9995 L23.9999,35.9995 L15.4199,35.9995 Z M25.9999,41.9995 L33.9999,41.9995 L33.9999,35.9995 L25.9999,35.9995 L25.9999,41.9995 Z M35.9999,35.9995 L35.9999,41.9995 L44.0799,41.9995 L44.5799,35.9995 L35.9999,35.9995 Z M43.9139,43.9995 L35.9999,43.9995 L35.9999,49.9995 L43.4139,49.9995 L43.9139,43.9995 Z M33.9999,43.9995 L25.9999,43.9995 L25.9999,49.9995 L33.9999,49.9995 L33.9999,43.9995 Z M23.9999,49.9995 L23.9999,43.9995 L16.0869,43.9995 L16.5869,49.9995 L23.9999,49.9995 Z M8.5829,33.9995 L13.2469,33.9995 L13.0029,31.0825 C12.9579,30.5325 13.3669,30.0495 13.9169,30.0035 C14.4659,29.9565 14.9509,30.3665 14.9969,30.9165 L15.2529,33.9995 L23.9999,33.9995 L23.9999,30.9995 C23.9999,30.4475 24.4479,29.9995 24.9999,29.9995 C25.5519,29.9995 25.9999,30.4475 25.9999,30.9995 L25.9999,33.9995 L33.9999,33.9995 L33.9999,30.9995 C33.9999,30.4475 34.4469,29.9995 34.9999,29.9995 C35.5529,29.9995 35.9999,30.4475 35.9999,30.9995 L35.9999,33.9995 L44.7469,33.9995 L45.0039,30.9165 C45.0489,30.3675 45.5169,29.9575 46.0829,30.0035 C46.6339,30.0495 47.0419,30.5325 46.9959,31.0825 L46.7529,33.9995 L51.5419,33.9995 C52.0949,33.9995 52.5419,34.4475 52.5419,34.9995 C52.5419,35.5515 52.0949,35.9995 51.5419,35.9995 L46.5859,35.9995 L46.0859,41.9995 L50.4579,41.9995 C51.0109,41.9995 51.4579,42.4475 51.4579,42.9995 C51.4579,43.5515 51.0109,43.9995 50.4579,43.9995 L45.9199,43.9995 L45.4199,49.9995 L49.4579,49.9995 C50.0109,49.9995 50.4579,50.4475 50.4579,50.9995 C50.4579,51.5515 50.0109,51.9995 49.4579,51.9995 L45.2529,51.9995 L44.9959,55.0825 C44.9529,55.6045 44.5159,55.9995 44.0009,55.9995 C43.9739,55.9995 43.9449,55.9995 43.9169,55.9965 C43.3659,55.9505 42.9579,55.4675 43.0039,54.9165 L43.2469,51.9995 L35.9999,51.9995 L35.9999,54.9995 C35.9999,55.5525 35.5529,55.9995 34.9999,55.9995 C34.4469,55.9995 33.9999,55.5525 33.9999,54.9995 L33.9999,51.9995 L25.9999,51.9995 L25.9999,54.9995 C25.9999,55.5525 25.5519,55.9995 24.9999,55.9995 C24.4479,55.9995 23.9999,55.5525 23.9999,54.9995 L23.9999,51.9995 L16.7529,51.9995 L16.9969,54.9165 C17.0429,55.4675 16.6329,55.9505 16.0829,55.9965 C16.0549,55.9995 16.0269,55.9995 15.9989,55.9995 C15.4839,55.9995 15.0469,55.6045 15.0029,55.0825 L14.7469,51.9995 L10.5829,51.9995 C10.0309,51.9995 9.5829,51.5515 9.5829,50.9995 C9.5829,50.4475 10.0309,49.9995 10.5829,49.9995 L14.5799,49.9995 L14.0799,43.9995 L9.5419,43.9995 C8.9899,43.9995 8.5419,43.5515 8.5419,42.9995 C8.5419,42.4475 8.9899,41.9995 9.5419,41.9995 L13.9129,41.9995 L13.4129,35.9995 L8.5829,35.9995 C8.0309,35.9995 7.5829,35.5515 7.5829,34.9995 C7.5829,34.4475 8.0309,33.9995 8.5829,33.9995 L8.5829,33.9995 Z M19.9999,2.9995 C19.9999,3.5505 20.4489,3.9995 20.9999,3.9995 L38.9999,3.9995 C39.5519,3.9995 39.9999,3.5505 39.9999,2.9995 C39.9999,2.4485 39.5519,1.9995 38.9999,1.9995 L20.9999,1.9995 C20.4489,1.9995 19.9999,2.4485 19.9999,2.9995 L19.9999,2.9995 Z M17.9999,2.9995 C17.9999,1.3455 19.3459,-0.0005 20.9999,-0.0005 L38.9999,-0.0005 C40.6539,-0.0005 41.9999,1.3455 41.9999,2.9995 C41.9999,4.6535 40.6539,5.9995 38.9999,5.9995 L20.9999,5.9995 C19.3459,5.9995 17.9999,4.6535 17.9999,2.9995 L17.9999,2.9995 Z M4.7319,23.9635 C4.8219,23.9885 4.9119,24.0005 5.0009,24.0005 C5.4389,24.0005 5.8409,23.7105 5.9629,23.2675 L6.8709,19.9995 L49.9999,19.9995 C50.5529,19.9995 50.9999,19.5515 50.9999,18.9995 C50.9999,18.4475 50.5529,17.9995 49.9999,17.9995 L7.4269,17.9995 L10.9449,5.3335 C11.4409,4.2135 12.0529,3.9995 12.9999,3.9995 L14.9999,3.9995 C15.5519,3.9995 15.9999,3.5515 15.9999,2.9995 C15.9999,2.4475 15.5519,1.9995 14.9999,1.9995 L12.9999,1.9995 C11.7949,1.9995 10.0789,2.2695 9.0809,4.6065 C9.0629,4.6475 9.0479,4.6895 9.0369,4.7315 L4.0369,22.7325 C3.8889,23.2645 4.1999,23.8155 4.7319,23.9635 L4.7319,23.9635 Z M56.9999,25.9995 L1.9999,25.9995 L1.9999,19.9995 L2.5629,19.9995 C3.1149,19.9995 3.5629,19.5525 3.5629,18.9995 C3.5629,18.4475 3.1149,17.9995 2.5629,17.9995 L0.9999,17.9995 C0.4479,17.9995 -0.0001,18.4475 -0.0001,18.9995 L-0.0001,26.9995 C-0.0001,27.5515 0.4479,27.9995 0.9999,27.9995 L55.8469,27.9995 L52.0099,54.8585 C52.0029,54.9055 51.9999,54.9525 51.9999,54.9995 C51.9999,56.6545 50.6539,57.9995 48.9999,57.9995 L10.9999,57.9995 C9.3459,57.9995 7.9999,56.6545 7.9999,54.9995 C7.9999,54.9535 7.9969,54.9065 7.9899,54.8605 L4.6149,30.8605 C4.5379,30.3135 4.0279,29.9335 3.4859,30.0095 C2.9389,30.0865 2.5579,30.5925 2.6349,31.1395 L6.0009,55.0735 C6.0399,57.7965 8.2679,59.9995 10.9999,59.9995 L48.9999,59.9995 C51.7329,59.9995 53.9589,57.7975 53.9989,55.0745 L57.9899,27.1415 C58.0309,26.8535 57.9449,26.5635 57.7559,26.3445 C57.5659,26.1255 57.2899,25.9995 56.9999,25.9995 L56.9999,25.9995 Z M59.9999,18.9995 L59.9999,22.9995 C59.9999,23.5525 59.5529,23.9995 58.9999,23.9995 C58.4469,23.9995 57.9999,23.5525 57.9999,22.9995 L57.9999,19.9995 L55.2049,19.9995 L55.9639,22.7325 C56.1109,23.2645 55.7999,23.8155 55.2679,23.9635 C55.1779,23.9885 55.0879,24.0005 54.9989,24.0005 C54.5619,24.0005 54.1589,23.7105 54.0359,23.2675 L49.0549,5.3335 C48.5599,4.2135 47.9469,3.9995 46.9999,3.9995 L44.9999,3.9995 C44.4469,3.9995 43.9999,3.5515 43.9999,2.9995 C43.9999,2.4475 44.4469,1.9995 44.9999,1.9995 L46.9999,1.9995 C48.2039,1.9995 49.9209,2.2695 50.9199,4.6065 C50.9369,4.6475 50.9519,4.6895 50.9639,4.7315 L54.6489,17.9995 L58.9999,17.9995 C59.5529,17.9995 59.9999,18.4475 59.9999,18.9995 L59.9999,18.9995 Z" id="basket"/></g></g></svg>